<svg version="1.1" id="Layer_1" xmlns="http://www.w3.org/2000/svg" xmlns:xlink="http://www.w3.org/1999/xlink" x="0px" y="0px"
	 width="100%" viewBox="0 0 357 311" enable-background="new 0 0 357 311" xml:space="preserve">
<path fill="#FBFAF9" opacity="1.000000" stroke="none" 
	d="
M1.000000,111.000000 
	C1.000000,74.000008 1.000000,37.500011 1.000000,1.000015 
	C119.999969,1.000010 238.999939,1.000010 357.999939,1.000005 
	C357.999939,104.666618 357.999939,208.333237 357.999969,311.999878 
	C239.000061,311.999939 120.000137,311.999939 1.000102,311.999969 
	C1.000000,245.166672 1.000000,178.333328 1.000000,111.000000 
M27.617088,107.735138 
	C31.820127,112.112617 36.023167,116.490097 40.559357,121.214561 
	C40.749329,120.607491 40.725876,120.961014 40.546207,121.194115 
	C40.244873,121.585030 39.870338,121.932442 39.481224,122.240898 
	C27.121870,132.038605 24.544846,144.402161 29.956308,158.805679 
	C32.455013,165.456390 35.093365,172.054642 37.624027,178.562576 
	C37.359806,178.879456 37.276085,179.084488 37.143242,179.123886 
	C33.638332,180.163254 30.112494,181.134583 26.622564,182.221375 
	C19.697855,184.377808 19.256720,185.332703 22.461134,191.673370 
	C36.206253,218.871323 50.151112,245.970474 63.617664,273.305389 
	C66.504913,279.166046 70.420929,282.676025 76.386826,284.860962 
	C102.331894,294.363007 129.403442,297.856110 156.697937,298.472595 
	C180.949463,299.020325 205.283234,298.007935 229.517349,296.596191 
	C249.492752,295.432526 269.014557,291.086090 287.770325,283.773529 
	C291.316498,282.390930 293.986938,280.522461 295.625732,276.779449 
	C298.292297,270.688934 301.583038,264.871674 304.610962,258.939392 
	C316.268860,236.099396 327.947479,213.269943 339.567871,190.410889 
	C341.911560,185.800476 341.299957,184.441895 336.304474,182.784760 
	C332.989349,181.685013 329.559906,180.921844 326.270142,179.757874 
	C325.041718,179.323227 323.475952,178.393463 323.083313,177.317490 
	C321.917175,174.121765 321.257935,170.741058 320.414398,167.486023 
	C331.922607,162.122742 337.510925,153.960068 336.949280,143.558960 
	C336.380890,133.032837 329.695923,125.112587 318.460876,121.222069 
	C317.080231,120.743980 315.531952,119.126984 315.119110,117.726051 
	C310.554047,102.235397 300.281097,93.224167 284.476349,90.667816 
	C281.210449,90.139572 279.723511,89.144196 278.957397,85.795601 
	C275.608429,71.158325 266.874847,61.035984 252.322098,56.828224 
	C237.942566,52.670540 225.728439,57.131802 215.748413,67.902962 
	C213.650665,70.167015 212.148941,70.696068 209.508789,68.875259 
	C203.970596,65.055794 197.665771,63.981258 190.994110,64.026894 
	C182.389359,64.085754 175.389023,67.872643 168.784409,73.152756 
	C167.312988,70.749580 166.033600,68.660049 164.611267,66.337036 
	C169.439636,62.175514 174.947357,57.245014 173.488480,51.003395 
	C171.342163,41.820778 173.413849,34.679836 177.747208,26.739458 
	C181.459900,19.936438 176.417526,13.407312 168.699600,11.940538 
	C159.280380,10.150437 151.033249,13.503822 142.636505,16.752329 
	C141.102570,17.345768 139.028763,17.767725 137.602829,17.223787 
	C125.628944,12.656196 115.392143,15.601092 106.424141,24.118647 
	C100.112930,30.112841 100.192169,30.196264 91.829041,31.479401 
	C74.904686,34.076061 60.945728,48.430969 60.491634,65.849770 
	C60.293724,73.441681 58.731743,78.854523 53.336838,84.202583 
	C49.953835,87.556206 48.575985,92.932549 46.169487,97.654480 
	C42.336895,92.352425 38.677994,87.007233 34.683052,81.926239 
	C33.382084,80.271591 30.943523,78.055878 29.496262,78.357422 
	C27.859495,78.698448 26.232544,81.393730 25.506483,83.393852 
	C22.571638,91.478683 23.447706,99.425880 27.617088,107.735138 
M182.261292,44.974316 
	C184.403824,49.953930 188.369858,52.815079 193.430908,54.131123 
	C204.267670,56.949055 214.651443,55.494190 224.126999,49.618763 
	C232.970032,44.135532 235.776657,34.961361 232.199356,25.352026 
	C228.552658,15.556274 220.844666,10.852744 210.406876,12.114795 
	C202.245804,13.101565 195.637772,17.385588 190.110245,22.981209 
	C184.448792,28.712412 179.648941,35.239258 182.261292,44.974316 
M300.477814,89.403564 
	C310.426117,91.199059 316.772369,87.978973 320.127075,79.433502 
	C323.082672,71.904724 320.205078,64.747635 312.136566,59.563286 
	C306.470398,55.922523 300.240295,54.501007 293.585938,55.126575 
	C284.354797,55.994381 279.698334,63.049362 282.858643,71.758820 
	C285.840149,79.975479 291.640900,85.717461 300.477814,89.403564 
M21.812057,47.695568 
	C17.810993,57.515503 27.793400,71.985397 39.399601,75.858643 
	C46.698120,78.294312 52.730400,75.125679 54.891926,67.670815 
	C57.118561,59.991398 55.242493,52.758949 51.330772,46.173908 
	C43.703602,33.334206 29.414860,33.810612 21.812057,47.695568 
z"/>
<path fill="#CF9A6F" opacity="1.000000" stroke="none" 
	d="
M27.421537,107.415146 
	C23.447706,99.425880 22.571638,91.478683 25.506483,83.393852 
	C26.232544,81.393730 27.859495,78.698448 29.496262,78.357422 
	C30.943523,78.055878 33.382084,80.271591 34.683052,81.926239 
	C38.677994,87.007233 42.336895,92.352425 46.169487,97.654480 
	C48.575985,92.932549 49.953835,87.556206 53.336838,84.202583 
	C58.731743,78.854523 60.293724,73.441681 60.491634,65.849770 
	C60.945728,48.430969 74.904686,34.076061 91.829041,31.479401 
	C100.192169,30.196264 100.112930,30.112841 106.424141,24.118647 
	C115.392143,15.601092 125.628944,12.656196 137.602829,17.223787 
	C139.028763,17.767725 141.102570,17.345768 142.636505,16.752329 
	C151.033249,13.503822 159.280380,10.150437 168.699600,11.940538 
	C176.417526,13.407312 181.459900,19.936438 177.747208,26.739458 
	C173.413849,34.679836 171.342163,41.820778 173.488480,51.003395 
	C174.947357,57.245014 169.439636,62.175514 164.611267,66.337036 
	C166.033600,68.660049 167.312988,70.749580 168.784409,73.152756 
	C175.389023,67.872643 182.389359,64.085754 190.994110,64.026894 
	C197.665771,63.981258 203.970596,65.055794 209.508789,68.875259 
	C212.148941,70.696068 213.650665,70.167015 215.748413,67.902962 
	C225.728439,57.131802 237.942566,52.670540 252.322098,56.828224 
	C266.874847,61.035984 275.608429,71.158325 278.957397,85.795601 
	C279.723511,89.144196 281.210449,90.139572 284.476349,90.667816 
	C300.281097,93.224167 310.554047,102.235397 315.119110,117.726051 
	C315.531952,119.126984 317.080231,120.743980 318.460876,121.222069 
	C329.695923,125.112587 336.380890,133.032837 336.949280,143.558960 
	C337.510925,153.960068 331.922607,162.122742 320.414398,167.486023 
	C321.257935,170.741058 321.917175,174.121765 323.083313,177.317490 
	C323.475952,178.393463 325.041718,179.323227 326.270142,179.757874 
	C329.559906,180.921844 332.989349,181.685013 336.304474,182.784760 
	C341.299957,184.441895 341.911560,185.800476 339.567871,190.410889 
	C327.947479,213.269943 316.268860,236.099396 304.610962,258.939392 
	C301.583038,264.871674 298.292297,270.688934 295.625732,276.779449 
	C293.986938,280.522461 291.316498,282.390930 287.770325,283.773529 
	C269.014557,291.086090 249.492752,295.432526 229.517349,296.596191 
	C205.283234,298.007935 180.949463,299.020325 156.697937,298.472595 
	C129.403442,297.856110 102.331894,294.363007 76.386826,284.860962 
	C70.420929,282.676025 66.504913,279.166046 63.617664,273.305389 
	C50.151112,245.970474 36.206253,218.871323 22.461134,191.673370 
	C19.256720,185.332703 19.697855,184.377808 26.622564,182.221375 
	C30.112494,181.134583 33.638332,180.163254 37.143242,179.123886 
	C37.276085,179.084488 37.359806,178.879456 37.624027,178.562576 
	C35.093365,172.054642 32.455013,165.456390 29.956308,158.805679 
	C24.544846,144.402161 27.121870,132.038605 39.481224,122.240898 
	C39.870338,121.932442 40.244873,121.585030 40.546207,121.194115 
	C40.725876,120.961014 40.749329,120.607491 40.559357,121.214561 
	C36.023167,116.490097 31.820127,112.112617 27.421537,107.415146 
M230.941208,206.202499 
	C237.869461,205.699692 244.813919,205.356003 251.721664,204.651932 
	C259.555328,203.853516 261.196320,202.073105 262.797577,193.380402 
	C258.760223,192.301285 254.692703,191.214096 250.589630,190.117401 
	C246.369476,199.348816 239.701645,204.311249 229.255661,204.772873 
	C228.601837,204.655670 227.937805,204.578522 227.295700,204.415283 
	C217.750351,201.988251 211.162155,196.349991 209.562714,186.402527 
	C208.138519,177.545151 211.690842,170.313782 219.214020,165.502258 
	C227.180206,160.407471 235.216888,161.033051 243.061783,166.256912 
	C244.049698,166.914749 246.140152,167.183731 246.969452,166.588135 
	C250.139801,164.311203 253.003464,161.607254 256.200958,158.875336 
	C245.305145,143.909897 233.259827,130.986160 215.058884,125.992599 
	C200.803848,122.081612 190.523254,128.459259 188.123764,143.107697 
	C184.412979,165.761581 189.928909,186.286072 204.258713,204.296844 
	C205.290237,205.593323 207.169434,207.027115 208.647049,207.019135 
	C215.771957,206.980728 222.894302,206.469833 230.941208,206.202499 
M104.784843,103.860558 
	C105.474716,103.137833 106.171501,102.421555 106.853424,101.691399 
	C114.186462,93.839661 123.499992,89.617561 133.791702,87.492790 
	C135.290863,87.183281 137.215256,88.933479 138.942886,89.730591 
	C137.775864,91.234108 136.800949,92.967995 135.373047,94.158669 
	C134.449081,94.929146 132.847580,94.855972 131.575394,95.244934 
	C122.122726,98.135109 112.936310,102.180771 108.369896,111.290817 
	C103.948357,120.111839 100.826431,129.701752 98.164864,139.241653 
	C96.666100,144.613678 97.250648,150.566940 96.896690,156.258347 
	C107.166672,145.922607 119.027458,139.842010 132.905502,137.574692 
	C132.453415,135.659760 132.160889,134.375687 131.846741,133.096909 
	C127.387650,114.944687 137.188568,96.490257 154.960587,91.071465 
	C160.805405,89.289345 162.187439,84.838425 162.418533,80.719650 
	C162.607666,77.348686 160.310181,72.947968 157.706970,70.502853 
	C152.849045,65.939896 152.492432,65.022926 158.298523,61.984501 
	C165.448212,58.242939 169.602768,51.914921 166.434296,46.404190 
	C162.366989,39.330189 164.046356,34.526989 169.070343,29.546942 
	C169.527206,29.094080 169.955582,28.450207 170.063705,27.836296 
	C170.499725,25.360867 171.960464,21.789619 170.882523,20.628462 
	C169.336594,18.963194 165.682281,18.052738 163.317505,18.576872 
	C156.385544,20.113285 149.674072,22.619446 142.813004,24.517065 
	C140.919357,25.040804 138.505585,25.459768 136.839905,24.742981 
	C126.216606,20.171528 116.645439,21.596909 109.626396,30.954094 
	C105.324287,36.689281 101.988518,39.080479 93.987961,38.587482 
	C77.641556,37.580235 63.681580,57.476974 67.819893,73.837646 
	C68.589989,73.727402 69.394333,73.468857 70.174957,73.527283 
	C72.549644,73.705032 74.915184,74.005165 77.284279,74.257645 
	C76.964050,76.592026 76.684280,78.933144 76.297043,81.256355 
	C76.191498,81.889587 75.751007,82.463844 75.483810,83.073746 
	C71.029907,93.239983 66.579109,103.407585 61.883915,114.131523 
	C74.783470,114.745171 85.251480,118.778000 91.694481,131.700256 
	C93.515755,118.751007 96.063263,107.333702 96.490585,95.837593 
	C96.980743,82.650803 95.927452,69.321106 83.445892,60.463463 
	C82.403404,59.723644 82.732925,57.050484 82.425011,55.275562 
	C84.065285,55.205654 86.070274,54.488811 87.285042,55.173660 
	C93.843857,58.871300 97.639565,64.886894 100.029617,71.840157 
	C101.142540,75.077934 101.977722,78.411179 102.980782,81.844872 
	C103.536201,81.398041 103.870972,81.246811 104.018364,80.988609 
	C104.512672,80.122673 104.945396,79.221214 105.392357,78.328674 
	C115.067528,59.008293 129.871582,44.900188 149.243851,35.572697 
	C150.707428,34.868004 152.936798,35.753792 154.810211,35.900261 
	C153.926590,37.755859 153.464371,40.075432 152.056625,41.353943 
	C150.137131,43.097229 147.467148,43.996284 145.170181,45.344608 
	C122.598572,58.594250 109.145149,78.325897 103.337982,104.099541 
	C103.337982,104.544456 103.337982,104.989372 103.337982,106.128098 
	C103.816818,105.047501 104.008804,104.614235 104.784843,103.860558 
M93.277222,209.030273 
	C72.780334,206.639465 52.798584,201.966843 32.083801,194.418304 
	C33.350471,197.294876 33.975998,198.911713 34.754005,200.451508 
	C41.513126,213.828888 48.301548,227.191437 55.077499,240.560303 
	C65.217293,260.565948 65.239609,260.474579 87.035080,266.066406 
	C115.627777,273.402100 144.831711,275.740814 174.154968,275.740967 
	C195.095123,275.741058 216.072083,274.363281 236.964294,272.727722 
	C255.091141,271.308655 272.782928,267.167267 290.041351,261.275421 
	C294.870026,259.626984 298.183533,257.063934 300.495026,252.251648 
	C307.054138,238.596283 314.186798,225.216812 321.064758,211.714005 
	C323.795837,206.352386 326.450806,200.951996 329.656250,194.537003 
	C323.289703,196.581543 318.285400,198.294296 313.219177,199.798676 
	C275.363922,211.039658 236.266647,212.994278 197.215607,214.622818 
	C179.115433,215.377640 160.908051,214.727051 142.799423,213.767548 
	C126.548050,212.906464 110.365341,210.749496 93.277222,209.030273 
M189.827011,71.126572 
	C179.734604,71.988907 168.757507,80.493668 168.151108,88.756386 
	C170.405411,89.203964 172.833527,89.303123 174.887131,90.231102 
	C176.211594,90.829613 176.986694,92.643829 178.007996,93.913208 
	C176.549759,94.903915 175.181183,96.098732 173.594025,96.795952 
	C172.843185,97.125778 171.677948,96.479668 170.693802,96.315773 
	C150.103363,92.886681 132.435394,113.318855 138.836639,133.075638 
	C139.689011,135.706390 140.754349,137.086670 143.904663,137.401016 
	C156.431839,138.650970 167.979355,142.509476 177.304260,151.514572 
	C177.892303,152.082443 178.886246,152.230042 179.789474,152.614975 
	C180.251144,149.262650 180.588608,146.289963 181.078049,143.342499 
	C184.383698,123.435204 199.080551,113.779236 218.155426,119.976181 
	C225.610077,122.398010 233.125031,126.206146 239.118896,131.182053 
	C247.985687,138.542938 255.520447,147.508408 264.217438,156.399017 
	C274.078125,152.575638 284.826294,154.000671 295.121674,159.642654 
	C305.368225,165.257874 311.667755,174.121674 315.407410,185.112000 
	C316.726440,179.217926 316.116028,173.925858 312.527557,169.047592 
	C308.844421,164.040634 309.705109,162.097321 315.886444,161.368256 
	C322.843079,160.547729 327.058105,156.413895 329.338379,150.253189 
	C333.006256,140.343597 325.932037,129.093018 316.288605,129.325623 
	C316.048920,130.419342 315.888062,131.572388 315.537994,132.664795 
	C314.781036,135.026993 315.140076,138.710861 311.112976,137.937973 
	C307.221985,137.191208 308.519745,134.123596 308.883728,131.500381 
	C311.522156,112.483948 298.142639,97.015488 279.441864,97.816162 
	C275.406830,97.988922 271.475708,99.935371 267.418274,100.527458 
	C265.537811,100.801857 263.469238,99.786804 261.485931,99.356323 
	C262.505951,97.703438 263.214020,95.672333 264.632385,94.502312 
	C266.098236,93.293114 268.494537,93.239769 270.032928,92.081787 
	C271.284912,91.139404 272.793121,89.178986 272.608032,87.898277 
	C270.953064,76.446007 260.701538,65.491859 249.886169,63.162376 
	C237.474182,60.489010 224.300079,65.622543 218.007874,76.715439 
	C215.239151,81.596581 214.657501,87.679550 212.673523,93.066086 
	C212.001953,94.889450 210.071625,96.249199 208.716553,97.820816 
	C207.801987,96.117378 206.045914,94.365471 206.140701,92.720161 
	C206.367294,88.786102 207.029587,84.747276 208.345261,81.045494 
	C209.466660,77.890343 208.586517,75.903145 205.975357,75.058380 
	C200.973190,73.440056 195.787857,72.387917 189.827011,71.126572 
M49.885597,124.136703 
	C34.078358,132.086639 29.675226,145.428253 39.072113,161.482376 
	C40.161533,159.627151 40.712009,157.877396 41.886265,156.821060 
	C49.847473,149.659256 59.041718,145.338730 69.966530,146.170380 
	C71.744179,146.305695 74.558060,148.305023 74.813248,149.798203 
	C75.374641,153.083084 72.370674,152.989746 69.967918,152.929825 
	C68.803825,152.900787 67.630203,152.840561 66.474686,152.945801 
	C56.839092,153.823486 48.958946,157.964371 43.343250,165.913330 
	C42.416409,167.225266 41.674076,169.596237 42.231709,170.872559 
	C45.139187,177.527237 48.494354,183.986343 51.746861,190.621857 
	C55.812531,188.217987 59.010159,185.641861 62.662071,184.343552 
	C67.117645,182.759491 71.925316,181.957031 76.647766,181.479111 
	C77.829201,181.359558 79.267517,183.778290 80.587769,185.030426 
	C79.272568,186.041748 78.061058,187.259079 76.605568,187.991684 
	C75.641342,188.477005 74.317986,188.205414 73.171722,188.379883 
	C67.777596,189.200897 62.894199,191.018997 58.075874,195.814575 
	C67.710167,197.790787 76.058296,199.503174 84.856567,201.307907 
	C84.856567,198.243637 84.538734,196.051880 84.912910,193.985443 
	C86.350822,186.044235 88.031006,178.147171 89.576088,170.224930 
	C90.105621,167.509811 91.164444,164.687302 90.838478,162.055420 
	C89.859741,154.153229 88.687805,146.235596 86.903084,138.482391 
	C84.553406,128.274857 78.144470,122.499115 67.711319,121.867355 
	C62.075745,121.526115 56.321327,123.147507 49.885597,124.136703 
M131.590027,144.899017 
	C108.790947,148.375702 88.572166,170.951843 91.764824,198.277206 
	C92.240959,202.352386 93.753616,203.494370 97.826897,202.484970 
	C96.634399,196.219574 100.814018,195.363617 105.441940,194.908508 
	C108.257027,194.631683 111.065926,194.269287 113.865555,193.862427 
	C119.788345,193.001694 125.703232,192.086563 132.592422,191.047256 
	C130.815445,189.494156 129.999557,188.708313 129.110840,188.015945 
	C122.674416,183.001663 116.200699,178.034973 109.784248,172.995346 
	C105.013138,169.248001 104.953560,167.746841 108.985626,163.426529 
	C115.209351,156.757889 122.839958,152.694168 131.672806,150.568802 
	C135.601151,149.623550 137.374802,151.109695 137.888428,154.773834 
	C138.303741,157.736618 138.607864,160.714935 139.021149,163.678040 
	C139.991104,170.632095 140.996948,177.581146 142.122910,185.476395 
	C143.608185,183.733810 144.368561,182.899796 145.064972,182.015427 
	C150.421844,175.212555 155.832474,168.450409 161.086868,161.569077 
	C163.742081,158.091751 166.214340,158.039886 169.351898,160.982071 
	C176.257797,167.457932 180.667038,175.237091 182.647202,184.496735 
	C183.405670,188.043472 182.248367,190.012466 178.747147,190.549652 
	C175.133148,191.104156 171.491013,191.473145 167.872482,192.000748 
	C161.647522,192.908417 155.431335,193.876175 148.203369,194.971466 
	C157.219086,203.142059 165.042938,210.393417 177.172577,207.946976 
	C178.933716,207.591782 180.843201,207.748016 182.657623,207.930344 
	C185.859421,208.252090 187.505356,207.151932 188.082153,203.770920 
	C190.632324,188.822357 181.925049,176.465561 178.890610,162.814117 
	C166.733383,148.242493 151.496399,141.608444 131.590027,144.899017 
M113.326218,278.085938 
	C98.771141,275.031067 84.216064,271.976166 69.787651,268.947845 
	C70.824173,274.052887 74.241699,277.293396 79.821533,279.123047 
	C106.145744,287.754944 133.320892,291.188049 160.812378,291.818024 
	C180.256912,292.263611 199.769943,291.879456 219.187866,290.753235 
	C240.963577,289.490234 262.392609,285.659180 283.178650,278.621765 
	C288.454071,276.835693 290.486023,273.208649 291.966736,268.287292 
	C281.574310,270.934113 271.739044,273.992798 261.685425,275.901367 
	C223.213104,283.204895 184.354004,284.073029 145.390442,281.713593 
	C134.960464,281.082001 124.592812,279.421448 113.326218,278.085938 
M286.223938,161.977112 
	C267.149414,155.919891 248.331192,168.600616 245.861618,182.155914 
	C246.709625,182.467636 247.588196,182.864166 248.506332,183.117035 
	C262.911987,187.084747 277.400513,190.778198 291.690948,195.123581 
	C296.815186,196.681763 301.373138,196.007797 306.251770,194.869980 
	C309.648224,194.077835 310.359131,192.456284 309.653076,189.201920 
	C306.826294,176.172318 299.290070,167.205322 286.223938,161.977112 
M240.192001,187.352127 
	C236.631195,185.294907 238.301849,182.469345 239.227966,179.901672 
	C241.674561,173.118439 241.228271,171.659729 234.272522,169.785492 
	C231.556747,169.053741 228.314682,169.391571 225.509201,170.063843 
	C220.004517,171.382919 215.972046,177.419189 216.056183,183.332642 
	C216.144958,189.571976 220.559586,195.455566 226.414673,197.137939 
	C232.563644,198.904785 238.745880,196.893127 241.878113,192.076614 
	C243.033646,190.299713 244.255478,188.455963 240.192001,187.352127 
M127.519188,177.962708 
	C129.700409,179.657211 131.881638,181.351715 135.028824,183.796646 
	C133.736664,174.369125 132.627136,166.274033 131.459549,157.755402 
	C124.348587,159.255081 118.870911,162.051590 114.399620,167.599121 
	C118.902985,171.169876 122.922600,174.357040 127.519188,177.962708 
M166.249527,167.917618 
	C165.018890,168.837463 163.535187,169.553406 162.601318,170.712372 
	C158.514267,175.784607 154.586578,180.985245 150.601074,186.139297 
	C150.897293,186.556992 151.193527,186.974686 151.489746,187.392380 
	C159.288956,186.289597 167.088150,185.186798 175.381424,184.014160 
	C173.960556,177.372833 171.225983,172.418091 166.249527,167.917618 
M54.929012,94.773201 
	C53.545124,99.613655 53.167755,104.364922 56.365749,109.852951 
	C60.737526,100.005562 64.756279,90.953377 69.137115,81.085587 
	C61.630394,83.421066 57.691422,87.973282 54.929012,94.773201 
M33.430096,103.840080 
	C36.845623,109.785843 41.780655,113.329903 50.122635,114.224091 
	C43.588345,105.255341 37.822250,97.340988 32.056160,89.426636 
	C31.446112,89.639435 30.836065,89.852242 30.226019,90.065041 
	C31.175846,94.429268 32.125675,98.793503 33.430096,103.840080 
M129.678604,198.246841 
	C121.717026,199.355499 113.755447,200.464142 104.532234,201.748489 
	C106.297516,203.240921 106.629005,203.764786 107.021477,203.815338 
	C110.976044,204.324814 114.949081,204.693558 118.900497,205.224197 
	C126.179649,206.201675 127.234940,205.616257 129.678604,198.246841 
M274.882904,201.493652 
	C276.896606,200.937622 278.910278,200.381592 281.741974,199.599686 
	C272.252533,193.844620 268.587616,194.727936 266.723724,202.451569 
	C269.220184,202.194611 271.654297,201.944061 274.882904,201.493652 
M43.427643,188.750870 
	C41.447037,183.320862 38.138092,185.953003 34.671207,188.335358 
	C37.814663,189.454483 40.958118,190.573608 44.915680,191.982574 
	C44.269299,190.455505 44.026989,189.883057 43.427643,188.750870 
z"/>
<path fill="#CF9A6F" opacity="1.000000" stroke="none" 
	d="
M182.147430,44.608864 
	C179.648941,35.239258 184.448792,28.712412 190.110245,22.981209 
	C195.637772,17.385588 202.245804,13.101565 210.406876,12.114795 
	C220.844666,10.852744 228.552658,15.556274 232.199356,25.352026 
	C235.776657,34.961361 232.970032,44.135532 224.126999,49.618763 
	C214.651443,55.494190 204.267670,56.949055 193.430908,54.131123 
	C188.369858,52.815079 184.403824,49.953930 182.147430,44.608864 
M188.222046,41.080612 
	C190.115936,43.016140 191.682953,45.995316 193.959717,46.708420 
	C204.397202,49.977531 214.386597,48.711571 223.012329,41.507671 
	C227.138519,38.061626 227.990219,33.044548 225.992264,27.861012 
	C223.655869,21.799416 219.187973,18.225721 213.917709,18.202988 
	C202.896774,18.155451 190.208176,29.040028 188.222046,41.080612 
z"/>
<path fill="#CF9A6F" opacity="1.000000" stroke="none" 
	d="
M300.099792,89.257950 
	C291.640900,85.717461 285.840149,79.975479 282.858643,71.758820 
	C279.698334,63.049362 284.354797,55.994381 293.585938,55.126575 
	C300.240295,54.501007 306.470398,55.922523 312.136566,59.563286 
	C320.205078,64.747635 323.082672,71.904724 320.127075,79.433502 
	C316.772369,87.978973 310.426117,91.199059 300.099792,89.257950 
M304.676270,83.179970 
	C310.064331,83.407730 313.147522,80.415688 314.230652,75.564758 
	C315.318970,70.690689 312.921631,66.884956 308.473724,65.258629 
	C304.054413,63.642746 299.283875,62.409832 294.615234,62.206554 
	C289.347137,61.977177 287.511261,65.264839 289.649658,70.196205 
	C292.411285,76.564842 297.035675,81.121674 304.676270,83.179970 
z"/>
<path fill="#CF9A6F" opacity="1.000000" stroke="none" 
	d="
M21.938862,47.321774 
	C29.414860,33.810612 43.703602,33.334206 51.330772,46.173908 
	C55.242493,52.758949 57.118561,59.991398 54.891926,67.670815 
	C52.730400,75.125679 46.698120,78.294312 39.399601,75.858643 
	C27.793400,71.985397 17.810993,57.515503 21.938862,47.321774 
M27.872538,53.428501 
	C29.237320,61.690247 34.642422,66.381538 42.017307,69.210312 
	C45.340000,70.484787 47.497562,69.051849 48.330696,65.699425 
	C49.961266,59.138203 48.113758,53.266708 44.435181,47.882523 
	C42.177757,44.578415 38.977596,42.899910 34.984818,44.195724 
	C30.998077,45.489574 27.855354,47.790710 27.872538,53.428501 
z"/>
<path fill="#FBFAF9" opacity="1.000000" stroke="none" 
	d="
M93.714783,209.097229 
	C110.365341,210.749496 126.548050,212.906464 142.799423,213.767548 
	C160.908051,214.727051 179.115433,215.377640 197.215607,214.622818 
	C236.266647,212.994278 275.363922,211.039658 313.219177,199.798676 
	C318.285400,198.294296 323.289703,196.581543 329.656250,194.537003 
	C326.450806,200.951996 323.795837,206.352386 321.064758,211.714005 
	C314.186798,225.216812 307.054138,238.596283 300.495026,252.251648 
	C298.183533,257.063934 294.870026,259.626984 290.041351,261.275421 
	C272.782928,267.167267 255.091141,271.308655 236.964294,272.727722 
	C216.072083,274.363281 195.095123,275.741058 174.154968,275.740967 
	C144.831711,275.740814 115.627777,273.402100 87.035080,266.066406 
	C65.239609,260.474579 65.217293,260.565948 55.077499,240.560303 
	C48.301548,227.191437 41.513126,213.828888 34.754005,200.451508 
	C33.975998,198.911713 33.350471,197.294876 32.083801,194.418304 
	C52.798584,201.966843 72.780334,206.639465 93.714783,209.097229 
z"/>
<path fill="#FAF9F7" opacity="1.000000" stroke="none" 
	d="
M190.252777,71.113708 
	C195.787857,72.387917 200.973190,73.440056 205.975357,75.058380 
	C208.586517,75.903145 209.466660,77.890343 208.345261,81.045494 
	C207.029587,84.747276 206.367294,88.786102 206.140701,92.720161 
	C206.045914,94.365471 207.801987,96.117378 208.716553,97.820816 
	C210.071625,96.249199 212.001953,94.889450 212.673523,93.066086 
	C214.657501,87.679550 215.239151,81.596581 218.007874,76.715439 
	C224.300079,65.622543 237.474182,60.489010 249.886169,63.162376 
	C260.701538,65.491859 270.953064,76.446007 272.608032,87.898277 
	C272.793121,89.178986 271.284912,91.139404 270.032928,92.081787 
	C268.494537,93.239769 266.098236,93.293114 264.632385,94.502312 
	C263.214020,95.672333 262.505951,97.703438 261.485931,99.356323 
	C263.469238,99.786804 265.537811,100.801857 267.418274,100.527458 
	C271.475708,99.935371 275.406830,97.988922 279.441864,97.816162 
	C298.142639,97.015488 311.522156,112.483948 308.883728,131.500381 
	C308.519745,134.123596 307.221985,137.191208 311.112976,137.937973 
	C315.140076,138.710861 314.781036,135.026993 315.537994,132.664795 
	C315.888062,131.572388 316.048920,130.419342 316.288605,129.325623 
	C325.932037,129.093018 333.006256,140.343597 329.338379,150.253189 
	C327.058105,156.413895 322.843079,160.547729 315.886444,161.368256 
	C309.705109,162.097321 308.844421,164.040634 312.527557,169.047592 
	C316.116028,173.925858 316.726440,179.217926 315.407410,185.112000 
	C311.667755,174.121674 305.368225,165.257874 295.121674,159.642654 
	C284.826294,154.000671 274.078125,152.575638 264.217438,156.399017 
	C255.520447,147.508408 247.985687,138.542938 239.118896,131.182053 
	C233.125031,126.206146 225.610077,122.398010 218.155426,119.976181 
	C199.080551,113.779236 184.383698,123.435204 181.078049,143.342499 
	C180.588608,146.289963 180.251144,149.262650 179.789474,152.614975 
	C178.886246,152.230042 177.892303,152.082443 177.304260,151.514572 
	C167.979355,142.509476 156.431839,138.650970 143.904663,137.401016 
	C140.754349,137.086670 139.689011,135.706390 138.836639,133.075638 
	C132.435394,113.318855 150.103363,92.886681 170.693802,96.315773 
	C171.677948,96.479668 172.843185,97.125778 173.594025,96.795952 
	C175.181183,96.098732 176.549759,94.903915 178.007996,93.913208 
	C176.986694,92.643829 176.211594,90.829613 174.887131,90.231102 
	C172.833527,89.303123 170.405411,89.203964 168.151108,88.756386 
	C168.757507,80.493668 179.734604,71.988907 190.252777,71.113708 
M169.161835,109.517052 
	C163.116852,112.228241 159.454712,116.993744 158.139099,123.327095 
	C157.839691,124.768471 159.464127,126.609482 160.203064,128.266556 
	C161.545990,127.325989 163.485031,126.687172 164.137955,125.397339 
	C169.558533,114.688972 171.294037,113.760002 183.501205,114.796867 
	C184.962509,114.920998 186.575378,113.260796 188.118011,112.427650 
	C187.023132,111.019188 186.211502,108.901260 184.782120,108.330597 
	C179.789795,106.337456 174.709137,106.797890 169.161835,109.517052 
M237.141342,89.561607 
	C230.139832,95.213722 227.542786,102.577759 229.309921,111.269089 
	C229.635727,112.871521 231.913040,114.077171 233.289612,115.465958 
	C234.198990,113.763206 235.526886,112.146904 235.901382,110.333687 
	C236.284851,108.477150 235.420959,106.390388 235.649719,104.469505 
	C236.434280,97.881401 240.838989,94.299423 246.682526,92.305305 
	C249.331665,91.401276 251.169754,89.902824 249.711838,87.370834 
	C249.059479,86.237816 246.115158,85.723488 244.432037,86.054070 
	C242.078552,86.516319 239.931793,88.031273 237.141342,89.561607 
M257.883057,125.412094 
	C258.542023,128.568375 260.363495,128.849396 263.075104,127.762711 
	C272.061249,124.161499 275.362518,125.179779 281.669128,132.561951 
	C282.684784,133.750824 284.936951,133.883316 286.617523,134.504135 
	C286.781799,132.578735 287.696503,130.291016 286.973694,128.793884 
	C284.522278,123.716270 279.976379,120.770485 274.656464,119.369133 
	C267.518677,117.488922 260.881775,119.756546 257.883057,125.412094 
z"/>
<path fill="#FAF9F7" opacity="1.000000" stroke="none" 
	d="
M103.711029,103.746033 
	C109.145149,78.325897 122.598572,58.594250 145.170181,45.344608 
	C147.467148,43.996284 150.137131,43.097229 152.056625,41.353943 
	C153.464371,40.075432 153.926590,37.755859 154.810211,35.900257 
	C152.936798,35.753792 150.707428,34.868004 149.243851,35.572697 
	C129.871582,44.900188 115.067528,59.008293 105.392357,78.328674 
	C104.945396,79.221214 104.512672,80.122673 104.018364,80.988609 
	C103.870972,81.246811 103.536201,81.398041 102.980782,81.844872 
	C101.977722,78.411179 101.142540,75.077934 100.029617,71.840157 
	C97.639565,64.886894 93.843857,58.871300 87.285042,55.173660 
	C86.070274,54.488811 84.065285,55.205654 82.425011,55.275566 
	C82.732925,57.050484 82.403404,59.723644 83.445892,60.463463 
	C95.927452,69.321106 96.980743,82.650803 96.490585,95.837593 
	C96.063263,107.333702 93.515755,118.751007 91.694481,131.700256 
	C85.251480,118.778000 74.783470,114.745171 61.883915,114.131523 
	C66.579109,103.407585 71.029907,93.239983 75.483810,83.073746 
	C75.751007,82.463844 76.191498,81.889587 76.297043,81.256355 
	C76.684280,78.933144 76.964050,76.592026 77.284279,74.257645 
	C74.915184,74.005165 72.549644,73.705032 70.174957,73.527283 
	C69.394333,73.468857 68.589989,73.727402 67.819893,73.837646 
	C63.681580,57.476974 77.641556,37.580235 93.987961,38.587482 
	C101.988518,39.080479 105.324287,36.689281 109.626396,30.954094 
	C116.645439,21.596909 126.216606,20.171528 136.839905,24.742981 
	C138.505585,25.459768 140.919357,25.040804 142.813004,24.517065 
	C149.674072,22.619446 156.385544,20.113285 163.317505,18.576872 
	C165.682281,18.052738 169.336594,18.963194 170.882523,20.628462 
	C171.960464,21.789619 170.499725,25.360867 170.063705,27.836296 
	C169.955582,28.450207 169.527206,29.094080 169.070343,29.546942 
	C164.046356,34.526989 162.366989,39.330189 166.434296,46.404190 
	C169.602768,51.914921 165.448212,58.242939 158.298523,61.984501 
	C152.492432,65.022926 152.849045,65.939896 157.706970,70.502853 
	C160.310181,72.947968 162.607666,77.348686 162.418533,80.719650 
	C162.187439,84.838425 160.805405,89.289345 154.960587,91.071465 
	C137.188568,96.490257 127.387650,114.944687 131.846741,133.096909 
	C132.160889,134.375687 132.453415,135.659760 132.905502,137.574692 
	C119.027458,139.842010 107.166672,145.922607 96.896690,156.258347 
	C97.250648,150.566940 96.666100,144.613678 98.164864,139.241653 
	C100.826431,129.701752 103.948357,120.111839 108.369896,111.290817 
	C112.936310,102.180771 122.122726,98.135109 131.575394,95.244934 
	C132.847580,94.855972 134.449081,94.929146 135.373047,94.158669 
	C136.800949,92.967995 137.775864,91.234108 138.942886,89.730591 
	C137.215256,88.933479 135.290863,87.183281 133.791702,87.492790 
	C123.499992,89.617561 114.186462,93.839661 106.853424,101.691399 
	C106.171501,102.421555 105.474716,103.137833 104.370377,103.912025 
	C103.955917,103.963493 103.711029,103.746033 103.711029,103.746033 
z"/>
<path fill="#FAF9F7" opacity="1.000000" stroke="none" 
	d="
M50.253059,124.010086 
	C56.321327,123.147507 62.075745,121.526115 67.711319,121.867355 
	C78.144470,122.499115 84.553406,128.274857 86.903084,138.482391 
	C88.687805,146.235596 89.859741,154.153229 90.838478,162.055420 
	C91.164444,164.687302 90.105621,167.509811 89.576088,170.224930 
	C88.031006,178.147171 86.350822,186.044235 84.912910,193.985443 
	C84.538734,196.051880 84.856567,198.243637 84.856567,201.307907 
	C76.058296,199.503174 67.710167,197.790787 58.075874,195.814575 
	C62.894199,191.018997 67.777596,189.200897 73.171722,188.379883 
	C74.317986,188.205414 75.641342,188.477005 76.605568,187.991684 
	C78.061058,187.259079 79.272568,186.041748 80.587769,185.030426 
	C79.267517,183.778290 77.829201,181.359558 76.647766,181.479111 
	C71.925316,181.957031 67.117645,182.759491 62.662071,184.343552 
	C59.010159,185.641861 55.812531,188.217987 51.746861,190.621857 
	C48.494354,183.986343 45.139187,177.527237 42.231709,170.872559 
	C41.674076,169.596237 42.416409,167.225266 43.343250,165.913330 
	C48.958946,157.964371 56.839092,153.823486 66.474686,152.945801 
	C67.630203,152.840561 68.803825,152.900787 69.967918,152.929825 
	C72.370674,152.989746 75.374641,153.083084 74.813248,149.798203 
	C74.558060,148.305023 71.744179,146.305695 69.966530,146.170380 
	C59.041718,145.338730 49.847473,149.659256 41.886265,156.821060 
	C40.712009,157.877396 40.161533,159.627151 39.072113,161.482376 
	C29.675226,145.428253 34.078358,132.086639 50.253059,124.010086 
z"/>
<path fill="#FAF9F8" opacity="1.000000" stroke="none" 
	d="
M230.017563,206.126556 
	C222.894302,206.469833 215.771957,206.980728 208.647049,207.019135 
	C207.169434,207.027115 205.290237,205.593323 204.258713,204.296844 
	C189.928909,186.286072 184.412979,165.761581 188.123764,143.107697 
	C190.523254,128.459259 200.803848,122.081612 215.058884,125.992599 
	C233.259827,130.986160 245.305145,143.909897 256.200958,158.875336 
	C253.003464,161.607254 250.139801,164.311203 246.969452,166.588135 
	C246.140152,167.183731 244.049698,166.914749 243.061783,166.256912 
	C235.216888,161.033051 227.180206,160.407471 219.214020,165.502258 
	C211.690842,170.313782 208.138519,177.545151 209.562714,186.402527 
	C211.162155,196.349991 217.750351,201.988251 227.295700,204.415283 
	C227.937805,204.578522 228.601837,204.655670 229.631744,205.148636 
	C230.011078,205.725128 230.014328,205.925842 230.017563,206.126556 
z"/>
<path fill="#F9F7F5" opacity="1.000000" stroke="none" 
	d="
M132.019562,144.846970 
	C151.496399,141.608444 166.733383,148.242493 178.890610,162.814117 
	C181.925049,176.465561 190.632324,188.822357 188.082153,203.770920 
	C187.505356,207.151932 185.859421,208.252090 182.657623,207.930344 
	C180.843201,207.748016 178.933716,207.591782 177.172577,207.946976 
	C165.042938,210.393417 157.219086,203.142059 148.203369,194.971466 
	C155.431335,193.876175 161.647522,192.908417 167.872482,192.000748 
	C171.491013,191.473145 175.133148,191.104156 178.747147,190.549652 
	C182.248367,190.012466 183.405670,188.043472 182.647202,184.496735 
	C180.667038,175.237091 176.257797,167.457932 169.351898,160.982071 
	C166.214340,158.039886 163.742081,158.091751 161.086868,161.569077 
	C155.832474,168.450409 150.421844,175.212555 145.064972,182.015427 
	C144.368561,182.899796 143.608185,183.733810 142.122910,185.476395 
	C140.996948,177.581146 139.991104,170.632095 139.021149,163.678040 
	C138.607864,160.714935 138.303741,157.736618 137.888428,154.773834 
	C137.374802,151.109695 135.601151,149.623550 131.672806,150.568802 
	C122.839958,152.694168 115.209351,156.757889 108.985626,163.426529 
	C104.953560,167.746841 105.013138,169.248001 109.784248,172.995346 
	C116.200699,178.034973 122.674416,183.001663 129.110840,188.015945 
	C129.999557,188.708313 130.815445,189.494156 132.592422,191.047256 
	C125.703232,192.086563 119.788345,193.001694 113.865555,193.862427 
	C111.065926,194.269287 108.257027,194.631683 105.441940,194.908508 
	C100.814018,195.363617 96.634399,196.219574 97.826897,202.484970 
	C93.753616,203.494370 92.240959,202.352386 91.764824,198.277206 
	C88.572166,170.951843 108.790947,148.375702 132.019562,144.846970 
z"/>
<path fill="#F9F6F3" opacity="1.000000" stroke="none" 
	d="
M113.761383,278.159607 
	C124.592812,279.421448 134.960464,281.082001 145.390442,281.713593 
	C184.354004,284.073029 223.213104,283.204895 261.685425,275.901367 
	C271.739044,273.992798 281.574310,270.934113 291.966736,268.287292 
	C290.486023,273.208649 288.454071,276.835693 283.178650,278.621765 
	C262.392609,285.659180 240.963577,289.490234 219.187866,290.753235 
	C199.769943,291.879456 180.256912,292.263611 160.812378,291.818024 
	C133.320892,291.188049 106.145744,287.754944 79.821533,279.123047 
	C74.241699,277.293396 70.824173,274.052887 69.787651,268.947845 
	C84.216064,271.976166 98.771141,275.031067 113.761383,278.159607 
z"/>
<path fill="#FAF9F7" opacity="1.000000" stroke="none" 
	d="
M286.609924,162.072617 
	C299.290070,167.205322 306.826294,176.172318 309.653076,189.201920 
	C310.359131,192.456284 309.648224,194.077835 306.251770,194.869980 
	C301.373138,196.007797 296.815186,196.681763 291.690948,195.123581 
	C277.400513,190.778198 262.911987,187.084747 248.506332,183.117035 
	C247.588196,182.864166 246.709625,182.467636 245.861618,182.155914 
	C248.331192,168.600616 267.149414,155.919891 286.609924,162.072617 
z"/>
<path fill="#F9F7F5" opacity="1.000000" stroke="none" 
	d="
M240.544891,187.504181 
	C244.255478,188.455963 243.033646,190.299713 241.878113,192.076614 
	C238.745880,196.893127 232.563644,198.904785 226.414673,197.137939 
	C220.559586,195.455566 216.144958,189.571976 216.056183,183.332642 
	C215.972046,177.419189 220.004517,171.382919 225.509201,170.063843 
	C228.314682,169.391571 231.556747,169.053741 234.272522,169.785492 
	C241.228271,171.659729 241.674561,173.118439 239.227966,179.901672 
	C238.301849,182.469345 236.631195,185.294907 240.544891,187.504181 
z"/>
<path fill="#F9F6F3" opacity="1.000000" stroke="none" 
	d="
M127.230698,177.753464 
	C122.922600,174.357040 118.902985,171.169876 114.399620,167.599121 
	C118.870911,162.051590 124.348587,159.255081 131.459549,157.755402 
	C132.627136,166.274033 133.736664,174.369125 135.028824,183.796646 
	C131.881638,181.351715 129.700409,179.657211 127.230698,177.753464 
z"/>
<path fill="#F9F6F3" opacity="1.000000" stroke="none" 
	d="
M166.574005,168.108032 
	C171.225983,172.418091 173.960556,177.372833 175.381424,184.014160 
	C167.088150,185.186798 159.288956,186.289597 151.489746,187.392380 
	C151.193527,186.974686 150.897293,186.556992 150.601074,186.139297 
	C154.586578,180.985245 158.514267,175.784607 162.601318,170.712372 
	C163.535187,169.553406 165.018890,168.837463 166.574005,168.108032 
z"/>
<path fill="#F7F2EE" opacity="1.000000" stroke="none" 
	d="
M230.479385,206.164520 
	C230.014328,205.925842 230.011078,205.725128 230.008743,205.222870 
	C239.701645,204.311249 246.369476,199.348816 250.589630,190.117401 
	C254.692703,191.214096 258.760223,192.301285 262.797577,193.380402 
	C261.196320,202.073105 259.555328,203.853516 251.721664,204.651932 
	C244.813919,205.356003 237.869461,205.699692 230.479385,206.164520 
z"/>
<path fill="#F9F6F3" opacity="1.000000" stroke="none" 
	d="
M55.038361,94.386322 
	C57.691422,87.973282 61.630394,83.421066 69.137115,81.085587 
	C64.756279,90.953377 60.737526,100.005562 56.365749,109.852951 
	C53.167755,104.364922 53.545124,99.613655 55.038361,94.386322 
z"/>
<path fill="#F9F6F3" opacity="1.000000" stroke="none" 
	d="
M33.252800,103.498901 
	C32.125675,98.793503 31.175846,94.429268 30.226019,90.065041 
	C30.836065,89.852242 31.446112,89.639435 32.056160,89.426636 
	C37.822250,97.340988 43.588345,105.255341 50.122635,114.224091 
	C41.780655,113.329903 36.845623,109.785843 33.252800,103.498901 
z"/>
<path fill="#F5EEE8" opacity="1.000000" stroke="none" 
	d="
M129.994324,198.393707 
	C127.234940,205.616257 126.179649,206.201675 118.900497,205.224197 
	C114.949081,204.693558 110.976044,204.324814 107.021477,203.815338 
	C106.629005,203.764786 106.297516,203.240921 104.532234,201.748489 
	C113.755447,200.464142 121.717026,199.355499 129.994324,198.393707 
z"/>
<path fill="#F5EEE8" opacity="1.000000" stroke="none" 
	d="
M274.485657,201.593582 
	C271.654297,201.944061 269.220184,202.194611 266.723724,202.451569 
	C268.587616,194.727936 272.252533,193.844620 281.741974,199.599686 
	C278.910278,200.381592 276.896606,200.937622 274.485657,201.593582 
z"/>
<path fill="#F5EEE8" opacity="1.000000" stroke="none" 
	d="
M43.606163,189.030731 
	C44.026989,189.883057 44.269299,190.455505 44.915680,191.982574 
	C40.958118,190.573608 37.814663,189.454483 34.671207,188.335358 
	C38.138092,185.953003 41.447037,183.320862 43.606163,189.030731 
z"/>
<path fill="#FAF9F7" opacity="1.000000" stroke="none" 
	d="
M104.078354,104.072235 
	C104.008804,104.614235 103.816818,105.047501 103.337982,106.128098 
	C103.337982,104.989372 103.337982,104.544456 103.524506,103.922791 
	C103.711029,103.746033 103.955917,103.963493 104.078354,104.072235 
z"/>
<path fill="#FAF9F7" opacity="1.000000" stroke="none" 
	d="
M188.177460,40.701206 
	C190.208176,29.040028 202.896774,18.155451 213.917709,18.202988 
	C219.187973,18.225721 223.655869,21.799416 225.992264,27.861012 
	C227.990219,33.044548 227.138519,38.061626 223.012329,41.507671 
	C214.386597,48.711571 204.397202,49.977531 193.959717,46.708420 
	C191.682953,45.995316 190.115936,43.016140 188.177460,40.701206 
z"/>
<path fill="#F9F7F5" opacity="1.000000" stroke="none" 
	d="
M304.271088,83.158356 
	C297.035675,81.121674 292.411285,76.564842 289.649658,70.196205 
	C287.511261,65.264839 289.347137,61.977177 294.615234,62.206554 
	C299.283875,62.409832 304.054413,63.642746 308.473724,65.258629 
	C312.921631,66.884956 315.318970,70.690689 314.230652,75.564758 
	C313.147522,80.415688 310.064331,83.407730 304.271088,83.158356 
z"/>
<path fill="#FAF9F7" opacity="1.000000" stroke="none" 
	d="
M27.869408,53.018005 
	C27.855354,47.790710 30.998077,45.489574 34.984818,44.195724 
	C38.977596,42.899910 42.177757,44.578415 44.435181,47.882523 
	C48.113758,53.266708 49.961266,59.138203 48.330696,65.699425 
	C47.497562,69.051849 45.340000,70.484787 42.017307,69.210312 
	C34.642422,66.381538 29.237320,61.690247 27.869408,53.018005 
z"/>
<path fill="#D09D72" opacity="1.000000" stroke="none" 
	d="
M169.504944,109.348145 
	C174.709137,106.797890 179.789795,106.337456 184.782120,108.330597 
	C186.211502,108.901260 187.023132,111.019188 188.118011,112.427643 
	C186.575378,113.260796 184.962509,114.920998 183.501205,114.796867 
	C171.294037,113.760002 169.558533,114.688972 164.137955,125.397339 
	C163.485031,126.687172 161.545990,127.325989 160.203064,128.266556 
	C159.464127,126.609482 157.839691,124.768471 158.139099,123.327095 
	C159.454712,116.993744 163.116852,112.228241 169.504944,109.348145 
z"/>
<path fill="#CF9A6F" opacity="1.000000" stroke="none" 
	d="
M237.418976,89.328720 
	C239.931793,88.031273 242.078552,86.516319 244.432037,86.054070 
	C246.115158,85.723488 249.059479,86.237816 249.711838,87.370834 
	C251.169754,89.902824 249.331665,91.401276 246.682526,92.305305 
	C240.838989,94.299423 236.434280,97.881401 235.649719,104.469505 
	C235.420959,106.390388 236.284851,108.477150 235.901382,110.333687 
	C235.526886,112.146904 234.198990,113.763206 233.289612,115.465958 
	C231.913040,114.077171 229.635727,112.871521 229.309921,111.269089 
	C227.542786,102.577759 230.139832,95.213722 237.418976,89.328720 
z"/>
<path fill="#D09D72" opacity="1.000000" stroke="none" 
	d="
M257.889709,125.029907 
	C260.881775,119.756546 267.518677,117.488922 274.656464,119.369133 
	C279.976379,120.770485 284.522278,123.716270 286.973694,128.793884 
	C287.696503,130.291016 286.781799,132.578735 286.617523,134.504135 
	C284.936951,133.883316 282.684784,133.750824 281.669128,132.561951 
	C275.362518,125.179779 272.061249,124.161499 263.075104,127.762711 
	C260.363495,128.849396 258.542023,128.568375 257.889709,125.029907 
z"/>
</svg>